<svg width="41" height="41" viewBox="0 0 41 41" fill="none" xmlns="http://www.w3.org/2000/svg">
<g clip-path="url(#clip0_3_151)">
<path d="M5.28996 22.8142C8.21152 22.8142 10.5799 20.4458 10.5799 17.5242C10.5799 14.6027 8.21152 12.2343 5.28996 12.2343C2.3684 12.2343 0 14.6027 0 17.5242C0 20.4458 2.3684 22.8142 5.28996 22.8142Z" fill="#965A50"/>
<path d="M5.28996 20.8306C7.11605 20.8306 8.59639 19.3503 8.59639 17.5242C8.59639 15.6981 7.11605 14.2178 5.28996 14.2178C3.46387 14.2178 1.98354 15.6981 1.98354 17.5242C1.98354 19.3503 3.46387 20.8306 5.28996 20.8306Z" fill="#D4AF91"/>
<path d="M35.71 22.8142C38.6316 22.8142 41 20.4458 41 17.5242C41 14.6027 38.6316 12.2343 35.71 12.2343C32.7885 12.2343 30.4201 14.6027 30.4201 17.5242C30.4201 20.4458 32.7885 22.8142 35.71 22.8142Z" fill="#965A50"/>
<path d="M35.71 20.8306C37.5361 20.8306 39.0165 19.3503 39.0165 17.5242C39.0165 15.6981 37.5361 14.2178 35.71 14.2178C33.8839 14.2178 32.4036 15.6981 32.4036 17.5242C32.4036 19.3503 33.8839 20.8306 35.71 20.8306Z" fill="#EBC9A0"/>
<path d="M35.4417 20.6537C34.7718 19.4977 34.3872 18.1989 34.3872 16.8628C34.3872 11.0673 30.8346 6.1058 25.7904 4.02473V1.65313L22.4839 2.9757L21.8227 0.330563C20.0785 0.91201 18.5906 2.13216 17.4699 3.31732C11.2593 4.70131 6.61293 10.2353 6.61293 16.8629C6.61293 18.199 6.22832 19.4977 5.55838 20.6538C4.53979 22.4113 3.96779 24.3759 3.96779 26.4516C3.96779 33.9386 11.3695 40.008 20.5001 40.008C29.6307 40.008 37.0324 33.9386 37.0324 26.4516C37.0323 24.3759 36.4602 22.4112 35.4417 20.6537Z" fill="#AF6E5A"/>
<path d="M11.2419 28.8212C11.2419 26.3996 11.8139 24.1074 12.8325 22.057C13.5025 20.7084 13.8871 19.1931 13.8871 17.6343C13.8871 10.905 17.408 5.14566 22.4148 2.69959L21.8226 0.330563C20.0784 0.91201 18.5905 2.13216 17.4698 3.31732C11.2593 4.70131 6.61293 10.2353 6.61293 16.8629C6.61293 18.199 6.2284 19.4977 5.55838 20.6538C4.53979 22.4113 3.96779 24.3759 3.96779 26.4516C3.96779 32.4947 8.79106 37.6121 15.4522 39.362C12.8351 36.564 11.2419 32.8712 11.2419 28.8212Z" fill="#965A50"/>
<path d="M20.5 37.3629C25.9783 37.3629 30.4194 33.81 30.4194 29.4273C30.4194 28.5181 30.2261 27.646 29.872 26.8339C29.3587 25.6562 29.5335 24.3045 30.3581 23.3194C31.4098 22.0629 31.9523 20.3663 31.666 18.5439C31.2728 16.0408 29.2491 14.0206 26.7454 13.6309C24.8321 13.3331 23.0588 13.9486 21.7883 15.1075C21.4271 15.4368 20.9635 15.6015 20.5001 15.6015C20.0364 15.6015 19.5727 15.4369 19.2115 15.1075C17.941 13.9486 16.1677 13.3331 14.2545 13.6309C11.7507 14.0206 9.72709 16.0408 9.33383 18.5439C9.04755 20.3663 9.59 22.0628 10.6417 23.3194C11.4664 24.3046 11.6411 25.6562 11.1278 26.8339C10.7739 27.6461 10.5805 28.5182 10.5805 29.4273C10.5806 33.8099 15.0217 37.3629 20.5 37.3629Z" fill="#FAEBC8"/>
<path d="M10.5806 29.4273C10.5806 30.9105 11.0986 32.2937 11.9839 33.4812C11.5084 32.0069 11.2419 30.445 11.2419 28.8211C11.2419 26.3995 11.8139 24.1074 12.8325 22.057C13.5025 20.7084 13.8871 19.193 13.8871 17.6342C13.8871 16.2483 14.044 14.9071 14.3249 13.6239C14.3013 13.6273 14.2782 13.6271 14.2545 13.6308C11.7508 14.0205 9.72725 16.0407 9.3339 18.5438C9.04763 20.3662 9.59016 22.0627 10.6418 23.3192C11.4665 24.3044 11.6413 25.656 11.128 26.8338C10.774 27.646 10.5806 28.5181 10.5806 29.4273Z" fill="#F5DCB4"/>
<path d="M19.1768 26.1209C19.0773 26.1209 18.9766 26.0987 18.8817 26.0512L17.5591 25.3899C17.2323 25.2265 17.1 24.8293 17.2633 24.5025C17.4273 24.1757 17.8239 24.0434 18.1507 24.2067L19.4732 24.868C19.8 25.0314 19.9324 25.4286 19.769 25.7554C19.6527 25.9872 19.4196 26.1209 19.1768 26.1209Z" fill="#5D5360"/>
<path d="M21.8232 26.1209C21.5804 26.1209 21.3472 25.9873 21.231 25.7554C21.0677 25.4286 21.2 25.0315 21.5268 24.868L22.8494 24.2067C23.1756 24.0434 23.5727 24.1757 23.7368 24.5025C23.9001 24.8293 23.7678 25.2265 23.441 25.3899L22.1184 26.0512C22.0234 26.0986 21.9227 26.1209 21.8232 26.1209Z" fill="#5D5360"/>
<path d="M14.5998 28.7661C14.1993 28.7661 13.8838 29.1209 13.9393 29.5175C14.3498 32.4497 17.1306 34.7176 20.5 34.7176C23.8694 34.7176 26.6502 32.4497 27.0607 29.5175C27.1162 29.1209 26.8007 28.7661 26.4002 28.7661H14.5998Z" fill="#4B3F4E"/>
<path d="M16.6896 33.6254C17.7673 34.3112 19.0799 34.7176 20.5 34.7176C21.9201 34.7176 23.2327 34.3112 24.3104 33.6254C23.8326 31.9705 22.3034 30.7499 20.5 30.7499C18.6966 30.7499 17.1674 31.9705 16.6896 33.6254Z" fill="#E6646E"/>
<path d="M20.5 34.7176C20.7236 34.7176 20.9435 34.7041 21.1613 34.6844V33.3951C21.1613 33.0299 20.8655 32.7338 20.5 32.7338C20.1345 32.7338 19.8387 33.0299 19.8387 33.3951V34.6844C20.0565 34.7041 20.2764 34.7176 20.5 34.7176Z" fill="#FF8087"/>
<path d="M5.29036 20.7755C3.34014 25.1893 1.39784 32.2097 0.242396 39.1394C0.108666 39.9414 0.735998 40.6693 1.54911 40.6693H6.79567C7.45071 40.6693 8.00301 40.189 8.10367 39.5418C9.4489 30.8919 11.6276 24.9636 11.6276 24.9636L5.29036 20.7755Z" fill="#AF6E5A"/>
<path d="M3.11015 40.6693C4.20018 34.4556 6.3944 27.1178 8.17974 22.6849L5.29028 20.7754C3.34014 25.1893 1.39784 32.2097 0.242396 39.1394C0.108666 39.9415 0.735998 40.6693 1.54911 40.6693H3.11015Z" fill="#965A50"/>
<path d="M6.34435 11.6104C7.28671 11.7918 7.9351 12.672 7.9351 13.6316V16.2757L10.0601 14.1508C11.9202 12.2906 14.8925 11.9399 17.0168 13.4914C19.6942 15.4468 19.9069 19.2671 17.6551 21.519L14.6902 24.4839C12.7203 26.4537 9.49687 26.4537 7.52703 24.4839L6.67932 23.6362C4.94306 21.8999 3.96771 19.5451 3.96771 17.0897V13.5561C3.96723 12.3322 5.07663 11.3664 6.34435 11.6104Z" fill="#CC9D72"/>
<path d="M16.7365 13.3067C14.6372 11.9775 11.8403 12.3705 10.06 14.1508L7.9351 16.2757V13.6316C7.9351 12.672 7.28663 11.7918 6.34435 11.6104C5.07655 11.3664 3.96731 12.3322 3.96779 13.5561V17.0897C3.96779 19.5451 4.94314 21.8999 6.67947 23.6362L7.5271 24.4839C6.79919 21.7924 10.5725 13.4127 16.7365 13.3067Z" fill="#B7885D"/>
<path d="M35.7305 20.7755C37.6807 25.1894 39.6229 32.2097 40.7784 39.1395C40.9122 39.9415 40.2848 40.6694 39.4717 40.6694H34.2252C33.5701 40.6694 33.0178 40.1891 32.9172 39.5419C31.5719 30.892 29.3932 24.9637 29.3932 24.9637L35.7305 20.7755Z" fill="#AF6E5A"/>
<path d="M34.6764 11.6104C33.734 11.7918 33.0856 12.672 33.0856 13.6316V16.2757L30.9607 14.1508C29.1006 12.2906 26.1283 11.9399 24.004 13.4914C21.3266 15.4468 21.1138 19.2671 23.3657 21.519L26.3306 24.4839C28.3004 26.4537 31.5239 26.4537 33.4937 24.4839L34.3414 23.6362C36.0777 21.8999 37.053 19.5451 37.053 17.0897V13.5561C37.0535 12.3322 35.9441 11.3664 34.6764 11.6104Z" fill="#CC9D72"/>
<path d="M17.1097 13.999L12.603 17.7967C12.36 18.0014 12.329 18.3643 12.5337 18.6073C12.7371 18.8487 13.0999 18.8825 13.3444 18.6765L18.0936 14.6746C17.8194 14.3687 17.4967 14.1376 17.1097 13.999Z" fill="#B27F59"/>
<path d="M18.7314 15.7975L14.234 19.9142C13.9996 20.1286 13.9835 20.4926 14.1981 20.727C14.4121 20.961 14.7762 20.9779 15.0109 20.7628L18.9216 17.1833C18.9348 16.7031 18.8748 16.2382 18.7314 15.7975Z" fill="#B27F59"/>
<path d="M23.8361 13.999L28.3428 17.7967C28.5858 18.0014 28.6168 18.3643 28.4121 18.6073C28.2087 18.8487 27.8459 18.8825 27.6014 18.6765L22.8521 14.6746C23.1264 14.3687 23.4491 14.1376 23.8361 13.999Z" fill="#B27F59"/>
<path d="M22.2144 15.7975L26.7118 19.9142C26.9462 20.1286 26.9623 20.4926 26.7477 20.727C26.5337 20.961 26.1696 20.9779 25.9349 20.7628L22.0242 17.1833C22.011 16.7031 22.0709 16.2382 22.2144 15.7975Z" fill="#B27F59"/>
</g>
<defs>
<clipPath id="clip0_3_151">
<rect width="41" height="41" fill="white"/>
</clipPath>
</defs>
</svg>
