<svg width="166" height="42" viewBox="0 0 166 42" fill="none" xmlns="http://www.w3.org/2000/svg">
<rect x="46" y="4" width="120" height="36" rx="4" fill="white"/>
<path d="M66.6477 17.4205C66.5568 16.5038 66.1667 15.7917 65.4773 15.2841C64.7879 14.7765 63.8523 14.5227 62.6705 14.5227C61.8674 14.5227 61.1894 14.6364 60.6364 14.8636C60.0833 15.0833 59.6591 15.3902 59.3636 15.7841C59.0758 16.178 58.9318 16.625 58.9318 17.125C58.9167 17.5417 59.0038 17.9053 59.1932 18.2159C59.3902 18.5265 59.6591 18.7955 60 19.0227C60.3409 19.2424 60.7348 19.4356 61.1818 19.6023C61.6288 19.7614 62.1061 19.8977 62.6136 20.0114L64.7045 20.5114C65.7197 20.7386 66.6515 21.0417 67.5 21.4205C68.3485 21.7992 69.0833 22.2652 69.7045 22.8182C70.3258 23.3712 70.8068 24.0227 71.1477 24.7727C71.4962 25.5227 71.6742 26.3826 71.6818 27.3523C71.6742 28.7765 71.3106 30.0114 70.5909 31.0568C69.8788 32.0947 68.8485 32.9015 67.5 33.4773C66.1591 34.0455 64.5417 34.3295 62.6477 34.3295C60.7689 34.3295 59.1326 34.0417 57.7386 33.4659C56.3523 32.8902 55.2689 32.0379 54.4886 30.9091C53.7159 29.7727 53.3106 28.3674 53.2727 26.6932H58.0341C58.0871 27.4735 58.3106 28.125 58.7045 28.6477C59.1061 29.1629 59.6402 29.553 60.3068 29.8182C60.9811 30.0758 61.7424 30.2045 62.5909 30.2045C63.4242 30.2045 64.1477 30.0833 64.7614 29.8409C65.3826 29.5985 65.8636 29.2614 66.2045 28.8295C66.5455 28.3977 66.7159 27.9015 66.7159 27.3409C66.7159 26.8182 66.5606 26.3788 66.25 26.0227C65.947 25.6667 65.5 25.3636 64.9091 25.1136C64.3258 24.8636 63.6098 24.6364 62.7614 24.4318L60.2273 23.7955C58.2652 23.3182 56.7159 22.572 55.5795 21.5568C54.4432 20.5417 53.8788 19.1742 53.8864 17.4545C53.8788 16.0455 54.2538 14.8144 55.0114 13.7614C55.7765 12.7083 56.8258 11.8864 58.1591 11.2955C59.4924 10.7045 61.0076 10.4091 62.7045 10.4091C64.4318 10.4091 65.9394 10.7045 67.2273 11.2955C68.5227 11.8864 69.5303 12.7083 70.25 13.7614C70.9697 14.8144 71.3409 16.0341 71.3636 17.4205H66.6477Z" fill="#1E2A3E"/>
<path d="M81.8951 34.3409C80.0997 34.3409 78.5542 33.9773 77.2588 33.25C75.9709 32.5152 74.9784 31.4773 74.2815 30.1364C73.5845 28.7879 73.236 27.1932 73.236 25.3523C73.236 23.5568 73.5845 21.9811 74.2815 20.625C74.9784 19.2689 75.9595 18.2121 77.2247 17.4545C78.4974 16.697 79.9898 16.3182 81.7019 16.3182C82.8534 16.3182 83.9254 16.5038 84.9178 16.875C85.9178 17.2386 86.7891 17.7879 87.5315 18.5227C88.2815 19.2576 88.8648 20.1818 89.2815 21.2955C89.6981 22.4015 89.9065 23.697 89.9065 25.1818V26.5114H75.1678V23.5114H85.3497C85.3497 22.8144 85.1981 22.197 84.8951 21.6591C84.5921 21.1212 84.1716 20.7008 83.6338 20.3977C83.1034 20.0871 82.486 19.9318 81.7815 19.9318C81.0466 19.9318 80.3951 20.1023 79.8269 20.4432C79.2663 20.7765 78.8269 21.2273 78.5088 21.7955C78.1906 22.3561 78.0277 22.9811 78.0201 23.6705V26.5227C78.0201 27.3864 78.1792 28.1326 78.4974 28.7614C78.8231 29.3902 79.2815 29.875 79.8724 30.2159C80.4633 30.5568 81.1641 30.7273 81.9747 30.7273C82.5125 30.7273 83.005 30.6515 83.4519 30.5C83.8989 30.3485 84.2815 30.1212 84.5997 29.8182C84.9178 29.5152 85.1603 29.1439 85.3269 28.7045L89.8042 29C89.5769 30.0758 89.111 31.0152 88.4065 31.8182C87.7095 32.6136 86.808 33.2348 85.7019 33.6818C84.6034 34.1212 83.3345 34.3409 81.8951 34.3409Z" fill="#1E2A3E" fill-opacity="0.8"/>
<path d="M99.9919 34.3409C98.2041 34.3409 96.6662 33.9621 95.3783 33.2045C94.098 32.4394 93.1131 31.3788 92.4238 30.0227C91.7419 28.6667 91.401 27.1061 91.401 25.3409C91.401 23.553 91.7457 21.9848 92.4351 20.6364C93.1321 19.2803 94.1207 18.2235 95.401 17.4659C96.6813 16.7008 98.2041 16.3182 99.9692 16.3182C101.492 16.3182 102.825 16.5947 103.969 17.1477C105.113 17.7008 106.018 18.4773 106.685 19.4773C107.352 20.4773 107.719 21.6515 107.787 23H103.219C103.09 22.1288 102.75 21.428 102.196 20.8977C101.651 20.3598 100.935 20.0909 100.049 20.0909C99.2988 20.0909 98.6434 20.2955 98.0828 20.7045C97.5298 21.1061 97.098 21.6932 96.7874 22.4659C96.4768 23.2386 96.3215 24.1742 96.3215 25.2727C96.3215 26.3864 96.473 27.3333 96.776 28.1136C97.0866 28.8939 97.5222 29.4886 98.0828 29.8977C98.6434 30.3068 99.2988 30.5114 100.049 30.5114C100.602 30.5114 101.098 30.3977 101.537 30.1705C101.984 29.9432 102.352 29.6136 102.64 29.1818C102.935 28.7424 103.128 28.2159 103.219 27.6023H107.787C107.712 28.9356 107.348 30.1098 106.696 31.125C106.053 32.1326 105.162 32.9205 104.026 33.4886C102.89 34.0568 101.545 34.3409 99.9919 34.3409Z" fill="#1E2A3E" fill-opacity="0.6"/>
<path d="M109.927 34V16.5455H114.62V19.5909H114.802C115.12 18.5076 115.654 17.6894 116.404 17.1364C117.154 16.5758 118.018 16.2955 118.995 16.2955C119.237 16.2955 119.499 16.3106 119.779 16.3409C120.059 16.3712 120.306 16.4129 120.518 16.4659V20.7614C120.29 20.6932 119.976 20.6326 119.575 20.5795C119.173 20.5265 118.806 20.5 118.472 20.5C117.76 20.5 117.124 20.6553 116.563 20.9659C116.01 21.2689 115.571 21.6932 115.245 22.2386C114.927 22.7841 114.768 23.4129 114.768 24.125V34H109.927Z" fill="#1E2A3E" fill-opacity="0.4"/>
<path d="M129.203 34.3409C127.407 34.3409 125.862 33.9773 124.566 33.25C123.278 32.5152 122.286 31.4773 121.589 30.1364C120.892 28.7879 120.544 27.1932 120.544 25.3523C120.544 23.5568 120.892 21.9811 121.589 20.625C122.286 19.2689 123.267 18.2121 124.532 17.4545C125.805 16.697 127.297 16.3182 129.009 16.3182C130.161 16.3182 131.233 16.5038 132.225 16.875C133.225 17.2386 134.097 17.7879 134.839 18.5227C135.589 19.2576 136.172 20.1818 136.589 21.2955C137.006 22.4015 137.214 23.697 137.214 25.1818V26.5114H122.475V23.5114H132.657C132.657 22.8144 132.506 22.197 132.203 21.6591C131.9 21.1212 131.479 20.7008 130.941 20.3977C130.411 20.0871 129.794 19.9318 129.089 19.9318C128.354 19.9318 127.703 20.1023 127.134 20.4432C126.574 20.7765 126.134 21.2273 125.816 21.7955C125.498 22.3561 125.335 22.9811 125.328 23.6705V26.5227C125.328 27.3864 125.487 28.1326 125.805 28.7614C126.131 29.3902 126.589 29.875 127.18 30.2159C127.771 30.5568 128.472 30.7273 129.282 30.7273C129.82 30.7273 130.312 30.6515 130.759 30.5C131.206 30.3485 131.589 30.1212 131.907 29.8182C132.225 29.5152 132.468 29.1439 132.634 28.7045L137.112 29C136.884 30.0758 136.419 31.0152 135.714 31.8182C135.017 32.6136 134.115 33.2348 133.009 33.6818C131.911 34.1212 130.642 34.3409 129.203 34.3409Z" fill="#1E2A3E" fill-opacity="0.3"/>
<path d="M148.697 16.5455V20.1818H138.186V16.5455H148.697ZM140.572 12.3636H145.413V28.6364C145.413 29.0833 145.481 29.4318 145.618 29.6818C145.754 29.9242 145.943 30.0947 146.186 30.1932C146.436 30.2917 146.724 30.3409 147.049 30.3409C147.277 30.3409 147.504 30.322 147.731 30.2841C147.959 30.2386 148.133 30.2045 148.254 30.1818L149.015 33.7841C148.773 33.8598 148.432 33.947 147.993 34.0455C147.553 34.1515 147.019 34.2159 146.39 34.2386C145.224 34.2841 144.201 34.1288 143.322 33.7727C142.451 33.4167 141.773 32.8636 141.288 32.1136C140.803 31.3636 140.565 30.4167 140.572 29.2727V12.3636ZM153.72 34.2955C152.97 34.2955 152.326 34.0303 151.788 33.5C151.258 32.9621 150.993 32.3182 150.993 31.5682C150.993 30.8258 151.258 30.1894 151.788 29.6591C152.326 29.1288 152.97 28.8636 153.72 28.8636C154.447 28.8636 155.084 29.1288 155.629 29.6591C156.175 30.1894 156.447 30.8258 156.447 31.5682C156.447 32.0682 156.319 32.5265 156.061 32.9432C155.811 33.3523 155.481 33.6818 155.072 33.9318C154.663 34.1742 154.213 34.2955 153.72 34.2955Z" fill="#1E2A3E" fill-opacity="0.2"/>
<g clip-path="url(#clip0_3_149)">
<path d="M5.28996 22.8142C8.21152 22.8142 10.5799 20.4458 10.5799 17.5242C10.5799 14.6027 8.21152 12.2343 5.28996 12.2343C2.3684 12.2343 0 14.6027 0 17.5242C0 20.4458 2.3684 22.8142 5.28996 22.8142Z" fill="#965A50"/>
<path d="M5.28996 20.8306C7.11605 20.8306 8.59639 19.3503 8.59639 17.5242C8.59639 15.6981 7.11605 14.2178 5.28996 14.2178C3.46387 14.2178 1.98354 15.6981 1.98354 17.5242C1.98354 19.3503 3.46387 20.8306 5.28996 20.8306Z" fill="#D4AF91"/>
<path d="M35.71 22.8142C38.6316 22.8142 41 20.4458 41 17.5242C41 14.6027 38.6316 12.2343 35.71 12.2343C32.7885 12.2343 30.4201 14.6027 30.4201 17.5242C30.4201 20.4458 32.7885 22.8142 35.71 22.8142Z" fill="#965A50"/>
<path d="M35.71 20.8306C37.5361 20.8306 39.0165 19.3503 39.0165 17.5242C39.0165 15.6981 37.5361 14.2178 35.71 14.2178C33.8839 14.2178 32.4036 15.6981 32.4036 17.5242C32.4036 19.3503 33.8839 20.8306 35.71 20.8306Z" fill="#EBC9A0"/>
<path d="M35.4417 20.6537C34.7718 19.4977 34.3872 18.1989 34.3872 16.8628C34.3872 11.0673 30.8346 6.1058 25.7904 4.02473V1.65313L22.4839 2.9757L21.8227 0.330563C20.0785 0.91201 18.5906 2.13216 17.4699 3.31732C11.2593 4.70131 6.61293 10.2353 6.61293 16.8629C6.61293 18.199 6.22832 19.4977 5.55838 20.6538C4.53979 22.4113 3.96779 24.3759 3.96779 26.4516C3.96779 33.9386 11.3695 40.008 20.5001 40.008C29.6307 40.008 37.0324 33.9386 37.0324 26.4516C37.0323 24.3759 36.4602 22.4112 35.4417 20.6537Z" fill="#AF6E5A"/>
<path d="M11.2419 28.8212C11.2419 26.3996 11.8139 24.1074 12.8325 22.057C13.5025 20.7084 13.8871 19.1931 13.8871 17.6343C13.8871 10.905 17.408 5.14566 22.4148 2.69959L21.8226 0.330563C20.0784 0.91201 18.5905 2.13216 17.4698 3.31732C11.2593 4.70131 6.61293 10.2353 6.61293 16.8629C6.61293 18.199 6.2284 19.4977 5.55838 20.6538C4.53979 22.4113 3.96779 24.3759 3.96779 26.4516C3.96779 32.4947 8.79106 37.6121 15.4522 39.362C12.8351 36.564 11.2419 32.8712 11.2419 28.8212Z" fill="#965A50"/>
<path d="M20.5 37.3629C25.9783 37.3629 30.4194 33.81 30.4194 29.4273C30.4194 28.5181 30.2261 27.646 29.872 26.8339C29.3587 25.6562 29.5335 24.3045 30.3581 23.3194C31.4098 22.0629 31.9523 20.3663 31.666 18.5439C31.2728 16.0408 29.2491 14.0206 26.7454 13.6309C24.8321 13.3331 23.0588 13.9486 21.7883 15.1075C21.4271 15.4368 20.9635 15.6015 20.5001 15.6015C20.0364 15.6015 19.5727 15.4369 19.2115 15.1075C17.941 13.9486 16.1677 13.3331 14.2545 13.6309C11.7507 14.0206 9.72709 16.0408 9.33383 18.5439C9.04755 20.3663 9.59 22.0628 10.6417 23.3194C11.4664 24.3046 11.6411 25.6562 11.1278 26.8339C10.7739 27.6461 10.5805 28.5182 10.5805 29.4273C10.5806 33.8099 15.0217 37.3629 20.5 37.3629Z" fill="#FAEBC8"/>
<path d="M10.5806 29.4273C10.5806 30.9105 11.0986 32.2937 11.9839 33.4812C11.5084 32.0069 11.2419 30.445 11.2419 28.8211C11.2419 26.3995 11.8139 24.1074 12.8325 22.057C13.5025 20.7084 13.8871 19.193 13.8871 17.6342C13.8871 16.2483 14.044 14.9071 14.3249 13.6239C14.3013 13.6273 14.2782 13.6271 14.2545 13.6308C11.7508 14.0205 9.72725 16.0407 9.3339 18.5438C9.04763 20.3662 9.59016 22.0627 10.6418 23.3192C11.4665 24.3044 11.6413 25.656 11.128 26.8338C10.774 27.646 10.5806 28.5181 10.5806 29.4273Z" fill="#F5DCB4"/>
<path d="M19.1768 26.1209C19.0773 26.1209 18.9766 26.0987 18.8817 26.0512L17.5591 25.3899C17.2323 25.2265 17.1 24.8293 17.2633 24.5025C17.4273 24.1757 17.8239 24.0434 18.1507 24.2067L19.4732 24.868C19.8 25.0314 19.9324 25.4286 19.769 25.7554C19.6527 25.9872 19.4196 26.1209 19.1768 26.1209Z" fill="#5D5360"/>
<path d="M21.8232 26.1209C21.5804 26.1209 21.3472 25.9873 21.231 25.7554C21.0677 25.4286 21.2 25.0315 21.5268 24.868L22.8494 24.2067C23.1756 24.0434 23.5727 24.1757 23.7368 24.5025C23.9001 24.8293 23.7678 25.2265 23.441 25.3899L22.1184 26.0512C22.0234 26.0986 21.9227 26.1209 21.8232 26.1209Z" fill="#5D5360"/>
<path d="M14.5998 28.7661C14.1993 28.7661 13.8838 29.1209 13.9393 29.5175C14.3498 32.4497 17.1306 34.7176 20.5 34.7176C23.8694 34.7176 26.6502 32.4497 27.0607 29.5175C27.1162 29.1209 26.8007 28.7661 26.4002 28.7661H14.5998Z" fill="#4B3F4E"/>
<path d="M16.6896 33.6254C17.7673 34.3112 19.0799 34.7176 20.5 34.7176C21.9201 34.7176 23.2327 34.3112 24.3104 33.6254C23.8326 31.9705 22.3034 30.7499 20.5 30.7499C18.6966 30.7499 17.1674 31.9705 16.6896 33.6254Z" fill="#E6646E"/>
<path d="M20.5 34.7176C20.7236 34.7176 20.9435 34.7041 21.1613 34.6844V33.3951C21.1613 33.0299 20.8655 32.7338 20.5 32.7338C20.1345 32.7338 19.8387 33.0299 19.8387 33.3951V34.6844C20.0565 34.7041 20.2764 34.7176 20.5 34.7176Z" fill="#FF8087"/>
<path d="M5.29036 20.7755C3.34014 25.1893 1.39784 32.2097 0.242396 39.1394C0.108666 39.9414 0.735998 40.6693 1.54911 40.6693H6.79567C7.45071 40.6693 8.00301 40.189 8.10367 39.5418C9.4489 30.8919 11.6276 24.9636 11.6276 24.9636L5.29036 20.7755Z" fill="#AF6E5A"/>
<path d="M3.11015 40.6693C4.20018 34.4556 6.3944 27.1178 8.17974 22.6849L5.29028 20.7754C3.34014 25.1893 1.39784 32.2097 0.242396 39.1394C0.108666 39.9415 0.735998 40.6693 1.54911 40.6693H3.11015Z" fill="#965A50"/>
<path d="M6.34435 11.6104C7.28671 11.7918 7.9351 12.672 7.9351 13.6316V16.2757L10.0601 14.1508C11.9202 12.2906 14.8925 11.9399 17.0168 13.4914C19.6942 15.4468 19.9069 19.2671 17.6551 21.519L14.6902 24.4839C12.7203 26.4537 9.49687 26.4537 7.52703 24.4839L6.67932 23.6362C4.94306 21.8999 3.96771 19.5451 3.96771 17.0897V13.5561C3.96723 12.3322 5.07663 11.3664 6.34435 11.6104Z" fill="#CC9D72"/>
<path d="M16.7365 13.3067C14.6372 11.9775 11.8403 12.3705 10.06 14.1508L7.9351 16.2757V13.6316C7.9351 12.672 7.28663 11.7918 6.34435 11.6104C5.07655 11.3664 3.96731 12.3322 3.96779 13.5561V17.0897C3.96779 19.5451 4.94314 21.8999 6.67947 23.6362L7.5271 24.4839C6.79919 21.7924 10.5725 13.4127 16.7365 13.3067Z" fill="#B7885D"/>
<path d="M35.7305 20.7755C37.6807 25.1894 39.6229 32.2097 40.7784 39.1395C40.9122 39.9415 40.2848 40.6694 39.4717 40.6694H34.2252C33.5701 40.6694 33.0178 40.1891 32.9172 39.5419C31.5719 30.892 29.3932 24.9637 29.3932 24.9637L35.7305 20.7755Z" fill="#AF6E5A"/>
<path d="M34.6764 11.6104C33.734 11.7918 33.0856 12.672 33.0856 13.6316V16.2757L30.9607 14.1508C29.1006 12.2906 26.1283 11.9399 24.004 13.4914C21.3266 15.4468 21.1138 19.2671 23.3657 21.519L26.3306 24.4839C28.3004 26.4537 31.5239 26.4537 33.4937 24.4839L34.3414 23.6362C36.0777 21.8999 37.053 19.5451 37.053 17.0897V13.5561C37.0535 12.3322 35.9441 11.3664 34.6764 11.6104Z" fill="#CC9D72"/>
<path d="M17.1097 13.999L12.603 17.7967C12.36 18.0014 12.329 18.3643 12.5337 18.6073C12.7371 18.8487 13.0999 18.8825 13.3444 18.6765L18.0936 14.6746C17.8194 14.3687 17.4967 14.1376 17.1097 13.999Z" fill="#B27F59"/>
<path d="M18.7314 15.7975L14.234 19.9142C13.9996 20.1286 13.9835 20.4926 14.1981 20.727C14.4121 20.961 14.7762 20.9779 15.0109 20.7628L18.9216 17.1833C18.9348 16.7031 18.8748 16.2382 18.7314 15.7975Z" fill="#B27F59"/>
<path d="M23.8361 13.999L28.3428 17.7967C28.5858 18.0014 28.6168 18.3643 28.4121 18.6073C28.2087 18.8487 27.8459 18.8825 27.6014 18.6765L22.8521 14.6746C23.1264 14.3687 23.4491 14.1376 23.8361 13.999Z" fill="#B27F59"/>
<path d="M22.2144 15.7975L26.7118 19.9142C26.9462 20.1286 26.9623 20.4926 26.7477 20.727C26.5337 20.961 26.1696 20.9779 25.9349 20.7628L22.0242 17.1833C22.011 16.7031 22.0709 16.2382 22.2144 15.7975Z" fill="#B27F59"/>
</g>
<defs>
<clipPath id="clip0_3_149">
<rect width="41" height="41" fill="white"/>
</clipPath>
</defs>
</svg>
