<svg width="534" height="711" viewBox="0 0 534 711" fill="none" xmlns="http://www.w3.org/2000/svg">
<g clip-path="url(#clip0_13_2)">
<path d="M505.415 562.386L468.592 623.795C466.614 627.094 462.323 628.168 459.024 626.19L403.778 593.062C400.479 591.084 399.405 586.793 401.383 583.494L449.857 502.655C451.836 499.356 456.127 498.282 459.425 500.26L495.241 521.736L505.415 562.386Z" fill="#518FF5"/>
<path d="M441.922 553.121L476.288 573.728L473.995 577.552L439.629 556.945L441.922 553.121Z" fill="white"/>
<path d="M436.814 561.64L471.18 582.247L468.887 586.071L434.521 565.464L436.814 561.64Z" fill="white"/>
<path d="M431.695 570.177L466.061 590.784L463.767 594.608L429.402 574.001L431.695 570.177Z" fill="white"/>
<path d="M426.587 578.696L451.038 593.357L448.745 597.182L424.293 582.52L426.587 578.696Z" fill="white"/>
<path opacity="0.19" d="M484.041 548.263L495.329 579.206L505.35 562.495L497.242 547.825L484.041 548.263Z" fill="black"/>
<path d="M505.415 562.386L485.985 550.735C482.686 548.757 481.612 544.466 483.59 541.167L495.241 521.736L505.415 562.386Z" fill="#A6C5FA"/>
</g>
<path d="M306.566 570.169C294.743 570.169 283.09 566.137 273.663 558.278C270.159 555.359 269.687 550.153 272.607 546.649C275.526 543.149 280.728 542.673 284.236 545.593C295.192 554.726 310.615 556.218 323.526 549.416C337.671 541.964 344.768 526.795 342.986 507.803C339.841 474.255 344.155 446.077 349.829 433.029C360.527 408.428 376.797 395.803 389.869 385.662C396.986 380.138 403.131 375.372 407.373 369.662C413.05 362.029 420.7 347.347 408.163 334.807C404.429 331.077 398.643 329.718 393.417 331.339C390.977 332.097 386.736 334.17 385.752 339.512C384.381 346.798 387.966 349.274 391.212 350.072C395.583 351.145 398.369 355.544 397.373 359.931C396.381 364.318 392.127 367.116 387.728 366.217C378.518 364.31 366.071 354.822 369.514 336.491C371.349 326.531 378.449 318.697 388.51 315.568C399.53 312.128 411.82 315.112 419.841 323.128C435.18 338.467 435.474 359.543 420.631 379.515C415.042 387.035 407.732 392.705 399.994 398.709C387.208 408.628 373.986 418.886 364.974 439.616C361.619 447.33 356.143 471.193 359.43 506.261C361.829 531.866 351.285 553.459 331.22 564.027C323.4 568.145 314.941 570.169 306.566 570.169Z" fill="#824641"/>
<path d="M122.081 411.5C122.118 420 122.081 427.5 122.081 427.5C122.081 427.5 122.081 438 122.081 442.726L129.787 462.472L156.626 535.419H288.755L315.594 462.472L323.3 442.726C325.191 437.88 330.994 435.952 335.396 438.723C351.011 448.549 381.721 477.691 381.404 551.935H418.812C422.406 389.928 321.787 353.741 321.787 353.741H123.594C123.594 353.741 122.081 362 122.081 373.5C122.081 385 122.044 403 122.081 411.5Z" fill="#965A50"/>
<path d="M109.985 376.212C94.37 366.386 63.66 337.244 63.977 263H26.569C22.975 425.007 123.594 461.194 123.594 461.194L135 466C135 466 135 447 134.5 423.935V415.435V411.935V406.935V397.935V389.935V383.435V372.209H122.081C120.19 377.055 114.388 378.983 109.985 376.212Z" fill="#965A50"/>
<path d="M168.337 590.641L277.367 534.451C280.242 504.995 267.791 476.421 242.659 461.911C217.527 447.401 186.555 450.906 162.483 468.123L168.337 590.641Z" fill="#EBC9A0"/>
<path d="M123.594 353.742C123.594 353.742 112.968 357.575 98.765 368.218C123.782 403.957 169.897 428.064 222.691 428.064C275.485 428.064 321.6 403.957 346.617 368.218C332.414 357.575 321.787 353.742 321.787 353.742H123.594Z" fill="#824641"/>
<path d="M107.08 279.42C129.884 279.42 148.37 260.934 148.37 238.13C148.37 215.326 129.884 196.84 107.08 196.84C84.2762 196.84 65.79 215.326 65.79 238.13C65.79 260.934 84.2762 279.42 107.08 279.42Z" fill="#965A50"/>
<path d="M107.08 262.904C120.762 262.904 131.854 251.812 131.854 238.13C131.854 224.448 120.762 213.356 107.08 213.356C93.3977 213.356 82.306 224.448 82.306 238.13C82.306 251.812 93.3977 262.904 107.08 262.904Z" fill="#EBC9A0"/>
<path d="M338.3 279.42C361.104 279.42 379.59 260.934 379.59 238.13C379.59 215.326 361.104 196.84 338.3 196.84C315.496 196.84 297.01 215.326 297.01 238.13C297.01 260.934 315.496 279.42 338.3 279.42Z" fill="#965A50"/>
<path d="M338.3 262.904C351.982 262.904 363.074 251.812 363.074 238.13C363.074 224.448 351.982 213.356 338.3 213.356C324.618 213.356 313.526 224.448 313.526 238.13C313.526 251.812 324.618 262.904 338.3 262.904Z" fill="#EBC9A0"/>
<path d="M337.754 262.505C333.885 255.829 331.251 248.533 330.176 240.963L328.201 222.412C326.166 203.299 319.844 184.635 308.309 169.259C296.835 153.965 281.356 141.845 263.43 134.45V116.185L237.968 126.37L232.876 106C219.445 110.477 207.986 119.873 199.356 129.001C151.533 139.658 115.753 182.269 115.749 233.303C115.748 243.302 113.117 253.204 108.032 261.814C99.936 275.523 95.379 290.897 95.379 307.153C95.379 364.809 152.378 411.549 222.691 411.549C293.004 411.549 350.003 364.81 350.003 307.153C350.003 291.169 345.597 276.039 337.754 262.505Z" fill="#AF6E5A"/>
<path d="M164.884 323.256C164.884 304.363 169.441 286.497 177.537 270.564C182.622 260.558 185.254 249.05 185.254 237.43C185.254 155.548 237.968 126.37 237.968 126.37L232.876 106C219.445 110.477 207.986 119.873 199.356 129.001C151.533 139.658 115.753 182.269 115.749 233.303C115.748 243.302 113.117 253.204 108.032 261.814C99.936 275.524 95.379 290.897 95.379 307.153C95.379 359.462 142.347 402.659 203.557 410.244C179.737 388.197 164.884 357.4 164.884 323.256Z" fill="#965A50"/>
<path d="M305.271 254.645V247.864C305.271 230.923 293.16 215.628 276.341 213.602C263.901 212.103 252.646 217.529 245.877 226.53C240.389 233.828 232.155 238.173 223.024 238.129C222.913 238.128 222.802 238.128 222.691 238.128C222.58 238.128 222.469 238.128 222.358 238.129C213.226 238.173 204.992 233.828 199.504 226.53C192.735 217.529 181.481 212.104 169.041 213.602C152.221 215.628 140.11 230.923 140.11 247.864V254.645C140.11 262.82 143.086 270.293 148.009 276.055C151.751 280.435 152.915 286.315 151.305 291.847C149.047 299.609 148.012 307.888 148.477 316.486C150.549 354.793 182.994 386.087 221.351 386.762C263.011 387.495 297.013 353.944 297.013 312.451C297.013 305.252 295.967 298.305 294.042 291.73C292.437 286.246 293.643 280.414 297.358 276.072C302.29 270.308 305.271 262.829 305.271 254.645Z" fill="#FAEBC8"/>
<path d="M164.884 323.256C164.884 304.363 169.441 286.497 177.537 270.564C182.622 260.558 185.254 249.05 185.254 237.43C185.254 229.881 185.828 222.926 186.641 216.255C181.366 213.882 175.361 212.841 169.041 213.602C152.221 215.628 140.11 230.923 140.11 247.864V254.645C140.11 262.82 143.086 270.293 148.009 276.055C151.751 280.435 152.914 286.316 151.305 291.847C149.047 299.609 148.012 307.887 148.477 316.486C149.582 336.921 159.382 355.304 174.06 368.164C168.217 354.265 164.884 339.15 164.884 323.256Z" fill="#F5DCB4"/>
<path d="M206.175 304.194C205.098 304.194 204.026 303.944 203.034 303.533C201.961 303.118 201.135 302.541 200.312 301.799C198.824 300.23 197.917 298.081 197.917 295.936C197.917 293.787 198.824 291.642 200.312 290.073C201.135 289.327 201.961 288.75 203.034 288.335C206.09 287.016 209.724 287.758 212.038 290.073C212.369 290.484 212.699 290.896 213.026 291.311C213.357 291.807 213.607 292.303 213.772 292.795C214.018 293.291 214.183 293.787 214.268 294.283C214.349 294.86 214.433 295.44 214.433 295.936C214.433 298.081 213.522 300.23 212.038 301.799C210.469 303.282 208.32 304.194 206.175 304.194Z" fill="#4B3F4E"/>
<path d="M239.207 304.194C238.13 304.194 237.058 303.944 236.066 303.533C235.078 303.118 234.167 302.541 233.344 301.799C231.856 300.23 230.949 298.081 230.949 295.936C230.949 293.787 231.856 291.642 233.344 290.073C234.167 289.327 235.078 288.75 236.066 288.335C238.05 287.428 240.36 287.428 242.344 288.335C243.336 288.75 244.243 289.327 245.07 290.073C245.401 290.484 245.731 290.896 246.058 291.311C246.389 291.807 246.639 292.303 246.804 292.795C247.05 293.291 247.215 293.787 247.3 294.283C247.381 294.86 247.465 295.44 247.465 295.936C247.465 298.081 246.554 300.23 245.07 301.799C244.243 302.541 243.336 303.118 242.344 303.533C241.352 303.944 240.279 304.194 239.207 304.194Z" fill="#4B3F4E"/>
<path d="M185.684 328.968C180.198 328.968 176.169 334.243 177.69 339.514C182.884 357.517 201.063 370.809 222.691 370.809C244.319 370.809 262.498 357.517 267.692 339.514C269.213 334.243 265.184 328.968 259.698 328.968H185.684Z" fill="#4B3F4E"/>
<path d="M173.142 271.161C164.02 271.161 156.626 263.766 156.626 254.645V246.387C156.626 237.265 164.021 229.871 173.142 229.871C182.264 229.871 189.658 237.266 189.658 246.387V254.645C189.658 263.767 182.264 271.161 173.142 271.161Z" fill="#4B3F4E"/>
<path d="M178.663 467.644C180.06 450.995 166.33 436.996 149.657 438.072C134.402 439.056 122.917 452.358 124.167 467.594L132.577 569.995L168.336 590.64L178.663 467.644Z" fill="#AF6E5A"/>
<path d="M226.673 624.322L110 556.961C94.8222 548.198 75.4115 553.398 66.648 568.577L66 569.699L237.641 668.796L238.289 667.674C247.052 652.494 241.852 633.085 226.673 624.322Z" fill="#F5DCB4"/>
<path d="M309.805 530.532C302.4 515.555 283.412 510.664 269.693 520.199L168.337 590.64L204.095 611.285L296.982 567.368C310.804 560.834 316.581 544.236 309.805 530.532Z" fill="#AF6E5A"/>
<path d="M173.14 254.648C177.701 254.648 181.398 250.951 181.398 246.39C181.398 241.829 177.701 238.132 173.14 238.132C168.579 238.132 164.882 241.829 164.882 246.39C164.882 250.951 168.579 254.648 173.14 254.648Z" fill="white"/>
<path d="M272.239 271.161C263.117 271.161 255.723 263.766 255.723 254.645V246.387C255.723 237.265 263.118 229.871 272.239 229.871C281.361 229.871 288.755 237.266 288.755 246.387V254.645C288.755 263.767 281.361 271.161 272.239 271.161Z" fill="#4B3F4E"/>
<path d="M272.24 254.648C276.801 254.648 280.498 250.951 280.498 246.39C280.498 241.829 276.801 238.132 272.24 238.132C267.679 238.132 263.982 241.829 263.982 246.39C263.982 250.951 267.679 254.648 272.24 254.648Z" fill="white"/>
<path d="M61.733 226.742C59.912 209.887 45.783 197.001 28.83 197.001L8.25802 197C3.69702 197 2.28882e-05 200.698 2.28882e-05 205.258V213.516C2.28882e-05 222.638 7.39402 230.032 16.516 230.032H24.774C26.113 241.952 26.714 252.907 26.765 263.064H64.119C63.86 251.586 63.112 239.517 61.733 226.742Z" fill="#F5DCB4"/>
<path d="M175.484 594.77L161.181 586.512L144.666 615.117L158.969 623.375L175.484 594.77Z" fill="#EBC9A0"/>
<path d="M384.206 588.258C386.027 605.113 400.156 617.999 417.109 617.999L437.68 618C442.241 618 445.938 614.302 445.938 609.742V601.484C445.938 592.362 438.544 584.968 429.422 584.968H421.164C419.825 573.048 419.224 562.093 419.173 551.936H381.82C382.079 563.414 382.826 575.483 384.206 588.258Z" fill="#F5DCB4"/>
<g clip-path="url(#clip1_13_2)">
<path d="M221.5 241.339C223.994 241.339 228.452 241.687 228.452 246.524C228.577 251.626 229.783 257.364 232.077 263.801C241.949 291.511 255.61 295.714 278.305 294.935C286.483 294.654 296.373 294.791 303.287 289.063C309.631 283.809 314.161 274.963 318.435 259.486C319.895 254.199 320.682 249.411 320.794 245.09H320.794C321.061 241.887 324.458 240.095 327.049 239.186C328.82 238.566 330 236.89 330 235.013V227.003C330 225.005 328.714 223.233 326.812 222.618C318.312 219.872 302.784 215.317 274.5 216.063C251.528 216.67 229.27 220.662 221.5 220.662C213.73 220.662 191.473 216.67 168.501 216.063C140.217 215.317 124.689 219.872 116.188 222.618C114.286 223.232 113 225.004 113 227.003V235.013C113 236.89 114.18 238.565 115.951 239.186C118.542 240.094 121.939 241.887 122.206 245.089C122.318 249.411 123.105 254.199 124.565 259.486C128.84 274.963 133.37 283.808 139.713 289.063C146.627 294.79 156.517 294.653 164.696 294.934C187.39 295.714 201.051 291.51 210.924 263.8C213.217 257.364 214.423 251.626 214.549 246.524C214.548 241.687 219.007 241.339 221.5 241.339Z" fill="#394049"/>
<path d="M168.153 225.599C146.482 224.809 123.761 225.338 133.762 256.945C142.805 285.523 151.11 284.792 165.109 285.401C179.109 286.01 193.148 285.259 201.934 260.597C211.281 234.364 199.463 226.739 168.153 225.599Z" fill="#536BA5"/>
<path opacity="0.2" d="M168.153 225.599C149.799 224.93 130.696 225.21 131.353 244.513C131.952 227.034 150.402 226.791 168.153 227.438C191.977 228.306 204.513 232.93 205.029 246.648C205.582 231.499 193.012 226.504 168.153 225.599Z" fill="black"/>
<path d="M274.847 225.599C296.518 224.809 319.239 225.338 309.237 256.945C300.195 285.523 291.89 284.792 277.89 285.401C263.891 286.01 249.852 285.259 241.065 260.597C231.719 234.364 243.537 226.739 274.847 225.599Z" fill="#536BA5"/>
<path opacity="0.2" d="M274.847 225.599C293.201 224.93 312.304 225.21 311.647 244.513C311.049 227.034 292.598 226.791 274.847 227.438C251.022 228.306 238.487 232.93 237.971 246.648C237.418 231.499 249.988 226.504 274.847 225.599Z" fill="black"/>
<path opacity="0.1" d="M168.153 225.599C146.482 224.809 123.761 225.338 133.762 256.945C135.128 261.259 136.476 264.901 137.829 267.985L179.41 226.405C175.991 226.008 172.24 225.747 168.153 225.599Z" fill="white"/>
<path opacity="0.1" d="M306.595 230.983L255.962 281.616C262.723 285.66 270.312 285.731 277.89 285.402C291.889 284.793 300.194 285.523 309.237 256.946C313.559 243.288 311.768 235.436 306.595 230.983Z" fill="white"/>
</g>
<g clip-path="url(#clip2_13_2)">
<path d="M332.965 117.943L323.39 175.119C319.391 198.992 275.515 204.974 236.171 198.385C196.826 191.796 157.293 171.844 161.292 147.971L170.867 90.7954C171.534 86.8159 175.342 83.9701 179.469 84.6613L326.831 109.341C330.958 110.032 333.632 113.963 332.965 117.943Z" fill="#444444"/>
<path d="M332.965 117.943L323.39 175.119C319.391 198.992 275.515 204.974 236.171 198.385L253.15 97.0011L326.831 109.341C330.958 110.032 333.632 113.963 332.965 117.943Z" fill="#292929"/>
<path d="M380.429 108.924C379.911 112.019 377.527 114.498 374.553 115.059L248.769 139.441C247.836 139.589 246.927 139.589 246.043 139.44C245.158 139.292 244.298 138.996 243.465 138.553L132.488 74.5187L134.808 60.6671L260.593 36.2845C261.524 36.1387 262.434 36.1391 263.318 36.2873C264.203 36.4354 265.063 36.7313 265.896 37.1727L376.873 101.207C379.501 102.709 380.947 105.829 380.429 108.924Z" fill="#6E6E6E"/>
<path d="M380.429 108.924C379.911 112.019 377.527 114.498 374.553 115.059L248.769 139.441C247.836 139.589 246.927 139.589 246.043 139.44L263.318 36.2873C264.203 36.4354 265.063 36.7313 265.896 37.1727L376.873 101.207C379.501 102.709 380.947 105.829 380.429 108.924Z" fill="#5A5A5A"/>
<path d="M264.269 85.2947C264.167 88.0089 261.954 90.0621 259.239 89.9598L186.199 87.2073L183.488 159.148L191.825 187.814C192.604 190.366 191.139 193.128 188.59 193.808C185.939 194.583 183.276 193.122 182.596 190.572L182.337 189.69C181.862 192.002 179.756 193.767 177.332 193.676C174.617 193.573 172.565 191.36 172.667 188.645L176.686 81.9941C176.788 79.2786 179.001 77.2267 181.717 77.329L259.604 80.2642C262.32 80.3666 264.372 82.5792 264.269 85.2947Z" fill="#FDBF00"/>
</g>
<defs>
<clipPath id="clip0_13_2">
<rect width="108.208" height="108.208" fill="white" transform="translate(440.648 489) rotate(30.9485)"/>
</clipPath>
<clipPath id="clip1_13_2">
<rect width="217" height="217" fill="white" transform="translate(113 147)"/>
</clipPath>
<clipPath id="clip2_13_2">
<rect width="255" height="255" fill="white" transform="translate(140.12) rotate(9.50744)"/>
</clipPath>
</defs>
</svg>
